<?xml version="1.0"?><svg version="1.2" baseProfile="tiny-ps" viewBox="0 0 300 300" xmlns="http://www.w3.org/2000/svg" xmlns:xlink="http://www.w3.org/1999/xlink"><title>Natulim</title><g><g fill="#fbfbfa" transform="matrix(.1 0 0 -.1 0 300)"><path d="M0 1500V0h3000v3000H0V1500z"/></g><g fill="#dce4d8" transform="matrix(.1 0 0 -.1 0 300)"><path d="M1745 2663c-29-28-83-151-105-237l-20-79v-104l20-78c28-108 54-162 161-327 152-233 215-372 240-526l12-73-11-80c-7-44-23-112-36-150l-24-70-42-63-41-64-62-59c-76-72-142-114-229-147l-66-25-86-12-86-12-86 12-86 12-64 23c-35 13-90 39-121 57l-57 34-68 67c-98 97-115 90-50-22l37-65 65-65 65-65 72-38 73-38 67-14 68-15h223l74 14c140 28 237 72 357 162l60 45 49 62c64 81 106 157 137 248l26 74 11 92 12 93-12 94-12 93-31 89c-44 126-103 233-216 391-161 225-190 280-207 388l-6 40 28-75c47-123 62-147 231-381l74-102 14 19c7 10 26 55 40 99l27 80 1 96v95l-38 77-38 76-57 58c-32 32-86 82-121 112l-63 54-25 56c-39 85-39 85-50 88-6 2-19-4-28-14zm-400-279c-9-9-40-65-70-124-71-142-146-271-270-465-113-177-170-285-206-390l-24-70v-210l19-55c10-30 33-82 50-115l31-60 70-71 70-71 55-30c30-17 83-41 116-52l61-20 79-7 79-6 75 16 75 16 84 41 84 42 67 67 67 67 42 84 41 84 10 54c6 29 10 88 10 130v77l-15 59c-20 80-89 222-166 342-114 179-226 368-295 499-73 140-101 184-114 184-5 0-16-7-25-16zm-323-1155 25-56 35-35c20-19 66-52 104-72 38-21 81-49 96-64l28-25 11-34 11-34-17-25-17-26-35-14-35-15-32 7c-17 3-53 18-79 32l-49 26-44 49-43 48-28 57-28 57v230l24 75 24 75 12-100 11-100 26-56z"/></g><g fill="#c9dc89" transform="matrix(.1 0 0 -.1 0 300)"><path d="M1726 2628c-30-53-70-149-85-205l-12-42v-79l-1-78 17-63c25-97 59-165 157-315 50-76 117-190 149-252l57-112 21-90 21-89v-150l-20-79c-38-148-116-271-234-366l-58-47-73-35c-41-20-102-43-137-51l-63-15h-197l-61 16c-133 34-235 93-335 195l-62 63v-41l48-74 48-74 60-54 59-54 70-33 70-33 85-17 85-17 110 6 110 6 86 25c115 34 200 75 284 140l70 52 52 65 53 64 39 80c22 44 48 109 58 145l17 65 1 145v145l-23 80-23 80-48 100-49 100-107 150c-131 184-171 250-196 320l-19 55 1 42v43l18-56c10-31 35-92 57-134l38-78 88-120c49-66 96-133 106-149l16-28 10 3c17 6 53 108 72 197l16 82-11 57-11 56-32 65-32 65-66 65c-36 36-85 80-109 99l-43 34-29 46c-16 25-34 63-40 83l-10 38h-38l-25-42zm-389-261c-8-12-36-65-62-117-68-135-154-284-259-445-50-77-116-191-148-252l-57-113-17-76-17-77 5-91 5-91 20-56c42-123 131-236 244-309l63-40 65-21 66-21 95-5 95-5 69 16 69 16 71 38 71 37 71 70 71 71 37 74 36 75 15 70c8 39 15 93 15 121v51l-20 79-20 79-45 94c-25 51-92 166-149 255-110 172-200 327-285 494l-53 102h-36l-15-23zm-348-980 10-98 24-52c13-28 36-66 51-84l27-32 78-45c123-71 162-120 147-181l-7-26-32-20-32-20-45 4-45 4-38 18c-22 10-60 39-87 65l-47 46-31 54-31 54-11 67-11 67 10 78c10 73 49 210 56 202 2-2 8-47 14-101z"/></g><g fill="#abcb43" transform="matrix(.1 0 0 -.1 0 300)"><path d="M1753 2658c-19-23-80-151-99-208l-19-55 1-105v-105l35-90 35-90 94-145c52-80 122-199 156-266l61-121 19-74 19-74-1-105-1-105-26-80-26-80-38-65-38-65-70-70-70-70-65-38-65-38-80-25-80-25-85-6-86-6-84 17-85 17-93 45-93 45-81 77-81 77 34-65 34-65 62-65 61-65 57-34 57-35 81-24 82-24h240l88 21 88 21 73 34c228 105 368 274 431 521l18 70v230l-21 81c-12 45-38 121-58 168l-36 87-74 107c-40 59-109 159-152 223l-79 115-23 60-22 59-5 70-5 70 9-10c5-5 17-39 27-75 24-89 75-188 152-295 36-50 86-121 112-158l46-68 7 14c5 7 20 49 34 92l25 78 6 67 7 66-18 60c-31 108-99 200-217 291l-58 44-29 42c-16 23-35 62-44 87-16 48-28 58-44 38zm-416-291c-8-12-36-65-62-117-68-135-154-284-259-445-50-77-116-191-148-252l-57-113-17-76-17-77 5-91 5-91 20-56c42-123 131-236 244-309l63-40 65-21 66-21 95-5 95-5 69 16 69 16 71 38 71 37 71 70 71 71 37 74 36 75 15 70c8 39 15 93 15 121v51l-20 79-20 79-45 94c-25 51-92 166-149 255-110 172-200 327-285 494l-53 102h-36l-15-23zm-348-980 10-98 24-52c13-28 36-66 51-84l27-32 78-45c123-71 162-120 147-181l-7-26-32-20-32-20-45 4-45 4-38 18c-22 10-60 39-87 65l-47 46-31 54-31 54-11 67-11 67 10 78c10 73 49 210 56 202 2-2 8-47 14-101z"/></g><g fill="#849ec9" transform="matrix(.1 0 0 -.1 0 300)"><path d="M1337 2367c-8-12-36-65-62-117-68-135-154-284-259-445-50-77-116-191-148-252l-57-113-17-76-17-77 5-91 5-91 20-56c42-123 131-236 244-309l63-40 65-21 66-21 95-5 95-5 69 16 69 16 71 38 71 37 71 70 71 71 37 74 36 75 15 70c8 39 15 93 15 121v51l-20 79-20 79-45 94c-25 51-92 166-149 255-110 172-200 327-285 494l-53 102h-36l-15-23zm-348-980 10-98 24-52c13-28 36-66 51-84l27-32 78-45c123-71 162-120 147-181l-7-26-32-20-32-20-45 4-45 4-38 18c-22 10-60 39-87 65l-47 46-31 54-31 54-11 67-11 67 10 78c10 73 49 210 56 202 2-2 8-47 14-101z"/></g><g fill="#2d59a6" transform="matrix(.1 0 0 -.1 0 300)"><path d="M1353 2378c-6-7-38-67-73-133-91-174-165-300-275-470-105-163-161-271-196-380l-23-70v-95l1-95 26-81 27-81 49-70 49-70 54-43c67-53 147-94 225-114l61-16h191l80 25 79 25 60 41 61 40 50 54c63 70 104 141 131 233l22 73-4 102-5 102-19 55c-29 87-102 223-200 375-95 146-178 289-283 488-34 64-66 117-70 117-5 0-13-6-18-12zm-358-969c3-50 13-112 21-138l14-48 30-41 30-42 57-37c32-20 79-50 106-67l47-31 21-42 20-41-14-34-15-35-37-17-37-18-44 7-43 6-59 39-58 39-32 40c-18 22-45 64-60 93l-27 53v240l18 58c26 85 35 107 45 107h9l8-91z"/></g></g></svg>